<mxfile host="app.diagrams.net" modified="2024-01-05T19:26:35.856Z" agent="Mozilla/5.0 (Windows NT 10.0; Win64; x64) AppleWebKit/537.36 (KHTML, like Gecko) Chrome/120.0.0.0 Safari/537.36" etag="HsoXxVV1xTGCbaekPLuB" version="22.1.17" type="github" pages="3">
  <diagram id="_BXXjqz8QpWIXo116ODa" name="Page-1">
    <mxGraphModel dx="1232" dy="1504" grid="0" gridSize="10" guides="1" tooltips="1" connect="1" arrows="1" fold="1" page="0" pageScale="1" pageWidth="827" pageHeight="1169" math="0" shadow="0">
      <root>
        <mxCell id="0" />
        <mxCell id="1" parent="0" />
        <mxCell id="LdmgHtzJC86V3BLWTP9l-4" style="edgeStyle=orthogonalEdgeStyle;rounded=0;orthogonalLoop=1;jettySize=auto;html=1;entryX=0.5;entryY=0;entryDx=0;entryDy=0;" parent="1" source="LdmgHtzJC86V3BLWTP9l-1" target="LdmgHtzJC86V3BLWTP9l-3" edge="1">
          <mxGeometry relative="1" as="geometry" />
        </mxCell>
        <mxCell id="LdmgHtzJC86V3BLWTP9l-1" value="" style="sketch=0;html=1;dashed=0;whitespace=wrap;fillColor=#2875E2;strokeColor=#ffffff;points=[[0.005,0.63,0],[0.1,0.2,0],[0.9,0.2,0],[0.5,0,0],[0.995,0.63,0],[0.72,0.99,0],[0.5,1,0],[0.28,0.99,0]];verticalLabelPosition=bottom;align=center;verticalAlign=top;shape=mxgraph.kubernetes.icon;prIcon=master" parent="1" vertex="1">
          <mxGeometry x="343" y="-3" width="50" height="48" as="geometry" />
        </mxCell>
        <mxCell id="LdmgHtzJC86V3BLWTP9l-10" style="edgeStyle=orthogonalEdgeStyle;rounded=0;orthogonalLoop=1;jettySize=auto;html=1;entryX=0.45;entryY=-0.05;entryDx=0;entryDy=0;entryPerimeter=0;" parent="1" source="LdmgHtzJC86V3BLWTP9l-3" target="LdmgHtzJC86V3BLWTP9l-6" edge="1">
          <mxGeometry relative="1" as="geometry" />
        </mxCell>
        <mxCell id="LdmgHtzJC86V3BLWTP9l-11" style="edgeStyle=orthogonalEdgeStyle;rounded=0;orthogonalLoop=1;jettySize=auto;html=1;entryX=0.5;entryY=0;entryDx=0;entryDy=0;" parent="1" source="LdmgHtzJC86V3BLWTP9l-3" target="LdmgHtzJC86V3BLWTP9l-7" edge="1">
          <mxGeometry relative="1" as="geometry" />
        </mxCell>
        <mxCell id="LdmgHtzJC86V3BLWTP9l-12" style="edgeStyle=orthogonalEdgeStyle;rounded=0;orthogonalLoop=1;jettySize=auto;html=1;entryX=0.5;entryY=0;entryDx=0;entryDy=0;dashed=1;" parent="1" source="LdmgHtzJC86V3BLWTP9l-3" target="LdmgHtzJC86V3BLWTP9l-8" edge="1">
          <mxGeometry relative="1" as="geometry" />
        </mxCell>
        <mxCell id="LdmgHtzJC86V3BLWTP9l-3" value="FLUX-SYSTEM repo" style="rounded=1;whiteSpace=wrap;html=1;" parent="1" vertex="1">
          <mxGeometry x="257" y="130" width="222" height="60" as="geometry" />
        </mxCell>
        <mxCell id="i6PAEOQ5pzDN8ldOf-SO-7" style="edgeStyle=orthogonalEdgeStyle;rounded=0;orthogonalLoop=1;jettySize=auto;html=1;exitX=1;exitY=0.5;exitDx=0;exitDy=0;entryX=0;entryY=0.5;entryDx=0;entryDy=0;dashed=1;dashPattern=8 8;" edge="1" parent="1" source="LdmgHtzJC86V3BLWTP9l-6" target="LdmgHtzJC86V3BLWTP9l-7">
          <mxGeometry relative="1" as="geometry" />
        </mxCell>
        <mxCell id="LdmgHtzJC86V3BLWTP9l-6" value="CRD repo" style="rounded=1;whiteSpace=wrap;html=1;" parent="1" vertex="1">
          <mxGeometry x="181" y="325" width="167" height="60" as="geometry" />
        </mxCell>
        <mxCell id="LdmgHtzJC86V3BLWTP9l-7" value="INFRA repo" style="rounded=1;whiteSpace=wrap;html=1;" parent="1" vertex="1">
          <mxGeometry x="453" y="325" width="156" height="60" as="geometry" />
        </mxCell>
        <mxCell id="LdmgHtzJC86V3BLWTP9l-8" value="APPS repo" style="rounded=1;whiteSpace=wrap;html=1;" parent="1" vertex="1">
          <mxGeometry x="709" y="325" width="163" height="60" as="geometry" />
        </mxCell>
        <mxCell id="i6PAEOQ5pzDN8ldOf-SO-1" value="" style="dashed=0;outlineConnect=0;html=1;align=center;labelPosition=center;verticalLabelPosition=bottom;verticalAlign=top;shape=mxgraph.weblogos.github" vertex="1" parent="1">
          <mxGeometry x="191" y="338" width="34" height="34" as="geometry" />
        </mxCell>
        <mxCell id="i6PAEOQ5pzDN8ldOf-SO-2" value="" style="dashed=0;outlineConnect=0;html=1;align=center;labelPosition=center;verticalLabelPosition=bottom;verticalAlign=top;shape=mxgraph.weblogos.github" vertex="1" parent="1">
          <mxGeometry x="459" y="338" width="34" height="34" as="geometry" />
        </mxCell>
        <mxCell id="i6PAEOQ5pzDN8ldOf-SO-4" value="" style="dashed=0;outlineConnect=0;html=1;align=center;labelPosition=center;verticalLabelPosition=bottom;verticalAlign=top;shape=mxgraph.weblogos.github" vertex="1" parent="1">
          <mxGeometry x="717" y="338" width="34" height="34" as="geometry" />
        </mxCell>
        <mxCell id="i6PAEOQ5pzDN8ldOf-SO-5" value="" style="dashed=0;outlineConnect=0;html=1;align=center;labelPosition=center;verticalLabelPosition=bottom;verticalAlign=top;shape=mxgraph.weblogos.github" vertex="1" parent="1">
          <mxGeometry x="265" y="143" width="34" height="34" as="geometry" />
        </mxCell>
      </root>
    </mxGraphModel>
  </diagram>
  <diagram id="IFt8FI7eKjwC4N_xVMNF" name="Page-2">
    <mxGraphModel dx="1026" dy="580" grid="0" gridSize="10" guides="1" tooltips="1" connect="1" arrows="1" fold="1" page="0" pageScale="1" pageWidth="827" pageHeight="1169" math="0" shadow="0">
      <root>
        <mxCell id="0" />
        <mxCell id="1" parent="0" />
        <mxCell id="EGzimpTUMDKrrbXrylXY-1" style="edgeStyle=orthogonalEdgeStyle;rounded=0;orthogonalLoop=1;jettySize=auto;html=1;entryX=0.5;entryY=0;entryDx=0;entryDy=0;" parent="1" source="EGzimpTUMDKrrbXrylXY-2" target="EGzimpTUMDKrrbXrylXY-6" edge="1">
          <mxGeometry relative="1" as="geometry" />
        </mxCell>
        <mxCell id="EGzimpTUMDKrrbXrylXY-2" value="" style="sketch=0;html=1;dashed=0;whitespace=wrap;fillColor=#2875E2;strokeColor=#ffffff;points=[[0.005,0.63,0],[0.1,0.2,0],[0.9,0.2,0],[0.5,0,0],[0.995,0.63,0],[0.72,0.99,0],[0.5,1,0],[0.28,0.99,0]];verticalLabelPosition=bottom;align=center;verticalAlign=top;shape=mxgraph.kubernetes.icon;prIcon=master" parent="1" vertex="1">
          <mxGeometry x="380" y="40" width="50" height="48" as="geometry" />
        </mxCell>
        <mxCell id="EGzimpTUMDKrrbXrylXY-3" style="edgeStyle=orthogonalEdgeStyle;rounded=0;orthogonalLoop=1;jettySize=auto;html=1;entryX=0.45;entryY=-0.05;entryDx=0;entryDy=0;entryPerimeter=0;" parent="1" source="EGzimpTUMDKrrbXrylXY-6" target="EGzimpTUMDKrrbXrylXY-7" edge="1">
          <mxGeometry relative="1" as="geometry" />
        </mxCell>
        <mxCell id="EGzimpTUMDKrrbXrylXY-4" style="edgeStyle=orthogonalEdgeStyle;rounded=0;orthogonalLoop=1;jettySize=auto;html=1;entryX=0.5;entryY=0;entryDx=0;entryDy=0;" parent="1" source="EGzimpTUMDKrrbXrylXY-6" target="EGzimpTUMDKrrbXrylXY-8" edge="1">
          <mxGeometry relative="1" as="geometry" />
        </mxCell>
        <mxCell id="EGzimpTUMDKrrbXrylXY-5" style="edgeStyle=orthogonalEdgeStyle;rounded=0;orthogonalLoop=1;jettySize=auto;html=1;entryX=0.5;entryY=0;entryDx=0;entryDy=0;" parent="1" source="EGzimpTUMDKrrbXrylXY-6" target="EGzimpTUMDKrrbXrylXY-9" edge="1">
          <mxGeometry relative="1" as="geometry" />
        </mxCell>
        <mxCell id="EGzimpTUMDKrrbXrylXY-6" value="flux-system git repo" style="rounded=1;whiteSpace=wrap;html=1;" parent="1" vertex="1">
          <mxGeometry x="345" y="130" width="120" height="60" as="geometry" />
        </mxCell>
        <mxCell id="EGzimpTUMDKrrbXrylXY-7" value="CRD" style="rounded=1;whiteSpace=wrap;html=1;" parent="1" vertex="1">
          <mxGeometry x="110" y="330" width="120" height="60" as="geometry" />
        </mxCell>
        <mxCell id="EGzimpTUMDKrrbXrylXY-14" style="edgeStyle=orthogonalEdgeStyle;rounded=0;orthogonalLoop=1;jettySize=auto;html=1;exitX=0.5;exitY=1;exitDx=0;exitDy=0;entryX=0.5;entryY=0;entryDx=0;entryDy=0;" parent="1" source="EGzimpTUMDKrrbXrylXY-8" target="EGzimpTUMDKrrbXrylXY-13" edge="1">
          <mxGeometry relative="1" as="geometry" />
        </mxCell>
        <mxCell id="EGzimpTUMDKrrbXrylXY-8" value="INFRA overlays" style="rounded=1;whiteSpace=wrap;html=1;" parent="1" vertex="1">
          <mxGeometry x="345" y="330" width="120" height="60" as="geometry" />
        </mxCell>
        <mxCell id="pWC9BL7oPckIicLtm2Cu-2" style="edgeStyle=orthogonalEdgeStyle;rounded=0;orthogonalLoop=1;jettySize=auto;html=1;entryX=0.5;entryY=0;entryDx=0;entryDy=0;" edge="1" parent="1" source="EGzimpTUMDKrrbXrylXY-9" target="pWC9BL7oPckIicLtm2Cu-1">
          <mxGeometry relative="1" as="geometry" />
        </mxCell>
        <mxCell id="EGzimpTUMDKrrbXrylXY-9" value="APPS values" style="rounded=1;whiteSpace=wrap;html=1;" parent="1" vertex="1">
          <mxGeometry x="580" y="330" width="120" height="60" as="geometry" />
        </mxCell>
        <mxCell id="EGzimpTUMDKrrbXrylXY-10" value="tag versioning" style="text;html=1;strokeColor=none;fillColor=none;align=center;verticalAlign=middle;whiteSpace=wrap;rounded=0;" parent="1" vertex="1">
          <mxGeometry x="170" y="220" width="80" height="30" as="geometry" />
        </mxCell>
        <mxCell id="EGzimpTUMDKrrbXrylXY-11" value="master" style="text;html=1;strokeColor=none;fillColor=none;align=center;verticalAlign=middle;whiteSpace=wrap;rounded=0;" parent="1" vertex="1">
          <mxGeometry x="414" y="220" width="60" height="30" as="geometry" />
        </mxCell>
        <mxCell id="EGzimpTUMDKrrbXrylXY-12" value="TBA" style="text;html=1;strokeColor=none;fillColor=none;align=center;verticalAlign=middle;whiteSpace=wrap;rounded=0;" parent="1" vertex="1">
          <mxGeometry x="650" y="220" width="60" height="30" as="geometry" />
        </mxCell>
        <mxCell id="EGzimpTUMDKrrbXrylXY-13" value="INFRA base and bundles" style="rounded=1;whiteSpace=wrap;html=1;" parent="1" vertex="1">
          <mxGeometry x="345" y="480" width="120" height="60" as="geometry" />
        </mxCell>
        <mxCell id="EGzimpTUMDKrrbXrylXY-15" value="tag versioning" style="text;html=1;strokeColor=none;fillColor=none;align=center;verticalAlign=middle;whiteSpace=wrap;rounded=0;" parent="1" vertex="1">
          <mxGeometry x="432" y="420" width="80" height="30" as="geometry" />
        </mxCell>
        <mxCell id="pWC9BL7oPckIicLtm2Cu-1" value="apps bundle with helmreleases&lt;br&gt;" style="rounded=1;whiteSpace=wrap;html=1;" vertex="1" parent="1">
          <mxGeometry x="580" y="483" width="120" height="60" as="geometry" />
        </mxCell>
        <mxCell id="pWC9BL7oPckIicLtm2Cu-3" value="tag versioning" style="text;html=1;strokeColor=none;fillColor=none;align=center;verticalAlign=middle;whiteSpace=wrap;rounded=0;" vertex="1" parent="1">
          <mxGeometry x="647" y="416" width="80" height="30" as="geometry" />
        </mxCell>
      </root>
    </mxGraphModel>
  </diagram>
  <diagram id="XbqyOXQxWT81iw_BYnc3" name="Page-3">
    <mxGraphModel dx="1026" dy="580" grid="1" gridSize="10" guides="1" tooltips="1" connect="1" arrows="1" fold="1" page="1" pageScale="1" pageWidth="827" pageHeight="1169" math="0" shadow="0">
      <root>
        <mxCell id="0" />
        <mxCell id="1" parent="0" />
        <mxCell id="dsvcPkpx2x87_nJwGa_C-1" style="edgeStyle=orthogonalEdgeStyle;rounded=0;orthogonalLoop=1;jettySize=auto;html=1;entryX=0.5;entryY=0;entryDx=0;entryDy=0;" edge="1" parent="1" source="dsvcPkpx2x87_nJwGa_C-2" target="dsvcPkpx2x87_nJwGa_C-6">
          <mxGeometry relative="1" as="geometry" />
        </mxCell>
        <mxCell id="dsvcPkpx2x87_nJwGa_C-2" value="" style="sketch=0;html=1;dashed=0;whitespace=wrap;fillColor=#2875E2;strokeColor=#ffffff;points=[[0.005,0.63,0],[0.1,0.2,0],[0.9,0.2,0],[0.5,0,0],[0.995,0.63,0],[0.72,0.99,0],[0.5,1,0],[0.28,0.99,0]];verticalLabelPosition=bottom;align=center;verticalAlign=top;shape=mxgraph.kubernetes.icon;prIcon=master" vertex="1" parent="1">
          <mxGeometry x="380" y="40" width="50" height="48" as="geometry" />
        </mxCell>
        <mxCell id="dsvcPkpx2x87_nJwGa_C-3" style="edgeStyle=orthogonalEdgeStyle;rounded=0;orthogonalLoop=1;jettySize=auto;html=1;entryX=0.45;entryY=-0.05;entryDx=0;entryDy=0;entryPerimeter=0;" edge="1" parent="1" source="dsvcPkpx2x87_nJwGa_C-6" target="dsvcPkpx2x87_nJwGa_C-7">
          <mxGeometry relative="1" as="geometry" />
        </mxCell>
        <mxCell id="dsvcPkpx2x87_nJwGa_C-6" value="flux-system git repo" style="rounded=1;whiteSpace=wrap;html=1;" vertex="1" parent="1">
          <mxGeometry x="345" y="140" width="120" height="60" as="geometry" />
        </mxCell>
        <mxCell id="dsvcPkpx2x87_nJwGa_C-14" style="edgeStyle=orthogonalEdgeStyle;rounded=0;orthogonalLoop=1;jettySize=auto;html=1;exitX=1;exitY=0.5;exitDx=0;exitDy=0;entryX=0;entryY=0.5;entryDx=0;entryDy=0;" edge="1" parent="1" source="dsvcPkpx2x87_nJwGa_C-7" target="dsvcPkpx2x87_nJwGa_C-13">
          <mxGeometry relative="1" as="geometry" />
        </mxCell>
        <mxCell id="dsvcPkpx2x87_nJwGa_C-7" value="CRD" style="rounded=1;whiteSpace=wrap;html=1;" vertex="1" parent="1">
          <mxGeometry x="110" y="330" width="120" height="60" as="geometry" />
        </mxCell>
        <mxCell id="dsvcPkpx2x87_nJwGa_C-10" value="tag versioning" style="text;html=1;strokeColor=none;fillColor=none;align=center;verticalAlign=middle;whiteSpace=wrap;rounded=0;" vertex="1" parent="1">
          <mxGeometry x="170" y="240" width="80" height="30" as="geometry" />
        </mxCell>
        <mxCell id="dsvcPkpx2x87_nJwGa_C-17" style="edgeStyle=orthogonalEdgeStyle;rounded=0;orthogonalLoop=1;jettySize=auto;html=1;entryX=1;entryY=0.5;entryDx=0;entryDy=0;" edge="1" parent="1" source="dsvcPkpx2x87_nJwGa_C-13" target="dsvcPkpx2x87_nJwGa_C-6">
          <mxGeometry relative="1" as="geometry">
            <Array as="points">
              <mxPoint x="640" y="170" />
            </Array>
          </mxGeometry>
        </mxCell>
        <mxCell id="dsvcPkpx2x87_nJwGa_C-13" value="bitbucket pipeline&lt;br&gt;find cluster available for crd promotion" style="rounded=1;whiteSpace=wrap;html=1;" vertex="1" parent="1">
          <mxGeometry x="580" y="330" width="120" height="60" as="geometry" />
        </mxCell>
        <mxCell id="dsvcPkpx2x87_nJwGa_C-15" value="new tag available" style="text;html=1;align=center;verticalAlign=middle;resizable=0;points=[];autosize=1;strokeColor=none;fillColor=none;" vertex="1" parent="1">
          <mxGeometry x="340" y="330" width="120" height="30" as="geometry" />
        </mxCell>
        <mxCell id="dsvcPkpx2x87_nJwGa_C-19" value="create PR for promotion CRD version" style="text;html=1;strokeColor=none;fillColor=none;align=center;verticalAlign=middle;whiteSpace=wrap;rounded=0;" vertex="1" parent="1">
          <mxGeometry x="490" y="230" width="150" height="50" as="geometry" />
        </mxCell>
      </root>
    </mxGraphModel>
  </diagram>
</mxfile>
